<?xml version="1.0" encoding="utf-8" standalone="no"?>
<!DOCTYPE svg PUBLIC "-//W3C//DTD SVG 1.1//EN"
  "http://www.w3.org/Graphics/SVG/1.1/DTD/svg11.dtd">
<!-- Created with matplotlib (https://matplotlib.org/) -->
<svg height="317.4605pt" version="1.1" viewBox="0 0 437.022812 317.4605" width="437.022812pt" xmlns="http://www.w3.org/2000/svg" xmlns:xlink="http://www.w3.org/1999/xlink">
 <defs>
  <style type="text/css">
*{stroke-linecap:butt;stroke-linejoin:round;}
  </style>
 </defs>
 <g id="figure_1">
  <g id="patch_1">
   <path d="M 0 317.4605 
L 437.022812 317.4605 
L 437.022812 0 
L 0 0 
z
" style="fill:#ffffff;"/>
  </g>
  <g id="axes_1">
   <g id="patch_2">
    <path d="M 49.622813 272.592375 
L 384.422813 272.592375 
L 384.422813 55.152375 
L 49.622813 55.152375 
z
" style="fill:#eaeaf2;"/>
   </g>
   <g id="matplotlib.axis_1">
    <g id="xtick_1">
     <g id="line2d_1">
      <path clip-path="url(#pa1781a40a9)" d="M 63.853236 272.592375 
L 63.853236 55.152375 
" style="fill:none;stroke:#ffffff;stroke-linecap:round;"/>
     </g>
     <g id="line2d_2"/>
     <g id="text_1">
      <!-- 0 -->
      <defs>
       <path d="M 4.15625 35.296875 
Q 4.15625 48 6.765625 55.734375 
Q 9.375 63.484375 14.515625 67.671875 
Q 19.671875 71.875 27.484375 71.875 
Q 33.25 71.875 37.59375 69.546875 
Q 41.9375 67.234375 44.765625 62.859375 
Q 47.609375 58.5 49.21875 52.21875 
Q 50.828125 45.953125 50.828125 35.296875 
Q 50.828125 22.703125 48.234375 14.96875 
Q 45.65625 7.234375 40.5 3 
Q 35.359375 -1.21875 27.484375 -1.21875 
Q 17.140625 -1.21875 11.234375 6.203125 
Q 4.15625 15.140625 4.15625 35.296875 
z
M 13.1875 35.296875 
Q 13.1875 17.671875 17.3125 11.828125 
Q 21.4375 6 27.484375 6 
Q 33.546875 6 37.671875 11.859375 
Q 41.796875 17.71875 41.796875 35.296875 
Q 41.796875 52.984375 37.671875 58.78125 
Q 33.546875 64.59375 27.390625 64.59375 
Q 21.34375 64.59375 17.71875 59.46875 
Q 13.1875 52.9375 13.1875 35.296875 
z
" id="ArialMT-48"/>
      </defs>
      <g style="fill:#262626;" transform="translate(61.072768 286.750188)scale(0.1 -0.1)">
       <use xlink:href="#ArialMT-48"/>
      </g>
     </g>
    </g>
    <g id="xtick_2">
     <g id="line2d_3">
      <path clip-path="url(#pa1781a40a9)" d="M 115.410633 272.592375 
L 115.410633 55.152375 
" style="fill:none;stroke:#ffffff;stroke-linecap:round;"/>
     </g>
     <g id="line2d_4"/>
     <g id="text_2">
      <!-- 10 -->
      <defs>
       <path d="M 37.25 0 
L 28.46875 0 
L 28.46875 56 
Q 25.296875 52.984375 20.140625 49.953125 
Q 14.984375 46.921875 10.890625 45.40625 
L 10.890625 53.90625 
Q 18.265625 57.375 23.78125 62.296875 
Q 29.296875 67.234375 31.59375 71.875 
L 37.25 71.875 
z
" id="ArialMT-49"/>
      </defs>
      <g style="fill:#262626;" transform="translate(109.849695 286.750188)scale(0.1 -0.1)">
       <use xlink:href="#ArialMT-49"/>
       <use x="55.615234" xlink:href="#ArialMT-48"/>
      </g>
     </g>
    </g>
    <g id="xtick_3">
     <g id="line2d_5">
      <path clip-path="url(#pa1781a40a9)" d="M 166.968029 272.592375 
L 166.968029 55.152375 
" style="fill:none;stroke:#ffffff;stroke-linecap:round;"/>
     </g>
     <g id="line2d_6"/>
     <g id="text_3">
      <!-- 20 -->
      <defs>
       <path d="M 50.34375 8.453125 
L 50.34375 0 
L 3.03125 0 
Q 2.9375 3.171875 4.046875 6.109375 
Q 5.859375 10.9375 9.828125 15.625 
Q 13.8125 20.3125 21.34375 26.46875 
Q 33.015625 36.03125 37.109375 41.625 
Q 41.21875 47.21875 41.21875 52.203125 
Q 41.21875 57.421875 37.46875 61 
Q 33.734375 64.59375 27.734375 64.59375 
Q 21.390625 64.59375 17.578125 60.78125 
Q 13.765625 56.984375 13.71875 50.25 
L 4.6875 51.171875 
Q 5.609375 61.28125 11.65625 66.578125 
Q 17.71875 71.875 27.9375 71.875 
Q 38.234375 71.875 44.234375 66.15625 
Q 50.25 60.453125 50.25 52 
Q 50.25 47.703125 48.484375 43.546875 
Q 46.734375 39.40625 42.65625 34.8125 
Q 38.578125 30.21875 29.109375 22.21875 
Q 21.1875 15.578125 18.9375 13.203125 
Q 16.703125 10.84375 15.234375 8.453125 
z
" id="ArialMT-50"/>
      </defs>
      <g style="fill:#262626;" transform="translate(161.407092 286.750188)scale(0.1 -0.1)">
       <use xlink:href="#ArialMT-50"/>
       <use x="55.615234" xlink:href="#ArialMT-48"/>
      </g>
     </g>
    </g>
    <g id="xtick_4">
     <g id="line2d_7">
      <path clip-path="url(#pa1781a40a9)" d="M 218.525426 272.592375 
L 218.525426 55.152375 
" style="fill:none;stroke:#ffffff;stroke-linecap:round;"/>
     </g>
     <g id="line2d_8"/>
     <g id="text_4">
      <!-- 30 -->
      <defs>
       <path d="M 4.203125 18.890625 
L 12.984375 20.0625 
Q 14.5 12.59375 18.140625 9.296875 
Q 21.78125 6 27 6 
Q 33.203125 6 37.46875 10.296875 
Q 41.75 14.59375 41.75 20.953125 
Q 41.75 27 37.796875 30.921875 
Q 33.84375 34.859375 27.734375 34.859375 
Q 25.25 34.859375 21.53125 33.890625 
L 22.515625 41.609375 
Q 23.390625 41.5 23.921875 41.5 
Q 29.546875 41.5 34.03125 44.421875 
Q 38.53125 47.359375 38.53125 53.46875 
Q 38.53125 58.296875 35.25 61.46875 
Q 31.984375 64.65625 26.8125 64.65625 
Q 21.6875 64.65625 18.265625 61.421875 
Q 14.84375 58.203125 13.875 51.765625 
L 5.078125 53.328125 
Q 6.6875 62.15625 12.390625 67.015625 
Q 18.109375 71.875 26.609375 71.875 
Q 32.46875 71.875 37.390625 69.359375 
Q 42.328125 66.84375 44.9375 62.5 
Q 47.5625 58.15625 47.5625 53.265625 
Q 47.5625 48.640625 45.0625 44.828125 
Q 42.578125 41.015625 37.703125 38.765625 
Q 44.046875 37.3125 47.5625 32.6875 
Q 51.078125 28.078125 51.078125 21.140625 
Q 51.078125 11.765625 44.234375 5.25 
Q 37.40625 -1.265625 26.953125 -1.265625 
Q 17.53125 -1.265625 11.296875 4.34375 
Q 5.078125 9.96875 4.203125 18.890625 
z
" id="ArialMT-51"/>
      </defs>
      <g style="fill:#262626;" transform="translate(212.964488 286.750188)scale(0.1 -0.1)">
       <use xlink:href="#ArialMT-51"/>
       <use x="55.615234" xlink:href="#ArialMT-48"/>
      </g>
     </g>
    </g>
    <g id="xtick_5">
     <g id="line2d_9">
      <path clip-path="url(#pa1781a40a9)" d="M 270.082822 272.592375 
L 270.082822 55.152375 
" style="fill:none;stroke:#ffffff;stroke-linecap:round;"/>
     </g>
     <g id="line2d_10"/>
     <g id="text_5">
      <!-- 40 -->
      <defs>
       <path d="M 32.328125 0 
L 32.328125 17.140625 
L 1.265625 17.140625 
L 1.265625 25.203125 
L 33.9375 71.578125 
L 41.109375 71.578125 
L 41.109375 25.203125 
L 50.78125 25.203125 
L 50.78125 17.140625 
L 41.109375 17.140625 
L 41.109375 0 
z
M 32.328125 25.203125 
L 32.328125 57.46875 
L 9.90625 25.203125 
z
" id="ArialMT-52"/>
      </defs>
      <g style="fill:#262626;" transform="translate(264.521885 286.750188)scale(0.1 -0.1)">
       <use xlink:href="#ArialMT-52"/>
       <use x="55.615234" xlink:href="#ArialMT-48"/>
      </g>
     </g>
    </g>
    <g id="xtick_6">
     <g id="line2d_11">
      <path clip-path="url(#pa1781a40a9)" d="M 321.640219 272.592375 
L 321.640219 55.152375 
" style="fill:none;stroke:#ffffff;stroke-linecap:round;"/>
     </g>
     <g id="line2d_12"/>
     <g id="text_6">
      <!-- 50 -->
      <defs>
       <path d="M 4.15625 18.75 
L 13.375 19.53125 
Q 14.40625 12.796875 18.140625 9.390625 
Q 21.875 6 27.15625 6 
Q 33.5 6 37.890625 10.78125 
Q 42.28125 15.578125 42.28125 23.484375 
Q 42.28125 31 38.0625 35.34375 
Q 33.84375 39.703125 27 39.703125 
Q 22.75 39.703125 19.328125 37.765625 
Q 15.921875 35.84375 13.96875 32.765625 
L 5.71875 33.84375 
L 12.640625 70.609375 
L 48.25 70.609375 
L 48.25 62.203125 
L 19.671875 62.203125 
L 15.828125 42.96875 
Q 22.265625 47.46875 29.34375 47.46875 
Q 38.71875 47.46875 45.15625 40.96875 
Q 51.609375 34.46875 51.609375 24.265625 
Q 51.609375 14.546875 45.953125 7.46875 
Q 39.0625 -1.21875 27.15625 -1.21875 
Q 17.390625 -1.21875 11.203125 4.25 
Q 5.03125 9.71875 4.15625 18.75 
z
" id="ArialMT-53"/>
      </defs>
      <g style="fill:#262626;" transform="translate(316.079281 286.750188)scale(0.1 -0.1)">
       <use xlink:href="#ArialMT-53"/>
       <use x="55.615234" xlink:href="#ArialMT-48"/>
      </g>
     </g>
    </g>
    <g id="xtick_7">
     <g id="line2d_13">
      <path clip-path="url(#pa1781a40a9)" d="M 373.197615 272.592375 
L 373.197615 55.152375 
" style="fill:none;stroke:#ffffff;stroke-linecap:round;"/>
     </g>
     <g id="line2d_14"/>
     <g id="text_7">
      <!-- 60 -->
      <defs>
       <path d="M 49.75 54.046875 
L 41.015625 53.375 
Q 39.84375 58.546875 37.703125 60.890625 
Q 34.125 64.65625 28.90625 64.65625 
Q 24.703125 64.65625 21.53125 62.3125 
Q 17.390625 59.28125 14.984375 53.46875 
Q 12.59375 47.65625 12.5 36.921875 
Q 15.671875 41.75 20.265625 44.09375 
Q 24.859375 46.4375 29.890625 46.4375 
Q 38.671875 46.4375 44.84375 39.96875 
Q 51.03125 33.5 51.03125 23.25 
Q 51.03125 16.5 48.125 10.71875 
Q 45.21875 4.9375 40.140625 1.859375 
Q 35.0625 -1.21875 28.609375 -1.21875 
Q 17.625 -1.21875 10.6875 6.859375 
Q 3.765625 14.9375 3.765625 33.5 
Q 3.765625 54.25 11.421875 63.671875 
Q 18.109375 71.875 29.4375 71.875 
Q 37.890625 71.875 43.28125 67.140625 
Q 48.6875 62.40625 49.75 54.046875 
z
M 13.875 23.1875 
Q 13.875 18.65625 15.796875 14.5 
Q 17.71875 10.359375 21.1875 8.171875 
Q 24.65625 6 28.46875 6 
Q 34.03125 6 38.03125 10.484375 
Q 42.046875 14.984375 42.046875 22.703125 
Q 42.046875 30.125 38.078125 34.390625 
Q 34.125 38.671875 28.125 38.671875 
Q 22.171875 38.671875 18.015625 34.390625 
Q 13.875 30.125 13.875 23.1875 
z
" id="ArialMT-54"/>
      </defs>
      <g style="fill:#262626;" transform="translate(367.636678 286.750188)scale(0.1 -0.1)">
       <use xlink:href="#ArialMT-54"/>
       <use x="55.615234" xlink:href="#ArialMT-48"/>
      </g>
     </g>
    </g>
    <g id="text_8">
     <!-- Voltage (V) -->
     <defs>
      <path d="M 28.171875 0 
L 0.4375 71.578125 
L 10.6875 71.578125 
L 29.296875 19.578125 
Q 31.546875 13.328125 33.0625 7.859375 
Q 34.71875 13.71875 36.921875 19.578125 
L 56.25 71.578125 
L 65.921875 71.578125 
L 37.890625 0 
z
" id="ArialMT-86"/>
      <path d="M 3.328125 25.921875 
Q 3.328125 40.328125 11.328125 47.265625 
Q 18.015625 53.03125 27.640625 53.03125 
Q 38.328125 53.03125 45.109375 46.015625 
Q 51.90625 39.015625 51.90625 26.65625 
Q 51.90625 16.65625 48.90625 10.90625 
Q 45.90625 5.171875 40.15625 2 
Q 34.421875 -1.171875 27.640625 -1.171875 
Q 16.75 -1.171875 10.03125 5.8125 
Q 3.328125 12.796875 3.328125 25.921875 
z
M 12.359375 25.921875 
Q 12.359375 15.96875 16.703125 11.015625 
Q 21.046875 6.0625 27.640625 6.0625 
Q 34.1875 6.0625 38.53125 11.03125 
Q 42.875 16.015625 42.875 26.21875 
Q 42.875 35.84375 38.5 40.796875 
Q 34.125 45.75 27.640625 45.75 
Q 21.046875 45.75 16.703125 40.8125 
Q 12.359375 35.890625 12.359375 25.921875 
z
" id="ArialMT-111"/>
      <path d="M 6.390625 0 
L 6.390625 71.578125 
L 15.1875 71.578125 
L 15.1875 0 
z
" id="ArialMT-108"/>
      <path d="M 25.78125 7.859375 
L 27.046875 0.09375 
Q 23.34375 -0.6875 20.40625 -0.6875 
Q 15.625 -0.6875 12.984375 0.828125 
Q 10.359375 2.34375 9.28125 4.8125 
Q 8.203125 7.28125 8.203125 15.1875 
L 8.203125 45.015625 
L 1.765625 45.015625 
L 1.765625 51.859375 
L 8.203125 51.859375 
L 8.203125 64.703125 
L 16.9375 69.96875 
L 16.9375 51.859375 
L 25.78125 51.859375 
L 25.78125 45.015625 
L 16.9375 45.015625 
L 16.9375 14.703125 
Q 16.9375 10.9375 17.40625 9.859375 
Q 17.875 8.796875 18.921875 8.15625 
Q 19.96875 7.515625 21.921875 7.515625 
Q 23.390625 7.515625 25.78125 7.859375 
z
" id="ArialMT-116"/>
      <path d="M 40.4375 6.390625 
Q 35.546875 2.25 31.03125 0.53125 
Q 26.515625 -1.171875 21.34375 -1.171875 
Q 12.796875 -1.171875 8.203125 3 
Q 3.609375 7.171875 3.609375 13.671875 
Q 3.609375 17.484375 5.34375 20.625 
Q 7.078125 23.78125 9.890625 25.6875 
Q 12.703125 27.59375 16.21875 28.5625 
Q 18.796875 29.25 24.03125 29.890625 
Q 34.671875 31.15625 39.703125 32.90625 
Q 39.75 34.71875 39.75 35.203125 
Q 39.75 40.578125 37.25 42.78125 
Q 33.890625 45.75 27.25 45.75 
Q 21.046875 45.75 18.09375 43.578125 
Q 15.140625 41.40625 13.71875 35.890625 
L 5.125 37.0625 
Q 6.296875 42.578125 8.984375 45.96875 
Q 11.671875 49.359375 16.75 51.1875 
Q 21.828125 53.03125 28.515625 53.03125 
Q 35.15625 53.03125 39.296875 51.46875 
Q 43.453125 49.90625 45.40625 47.53125 
Q 47.359375 45.171875 48.140625 41.546875 
Q 48.578125 39.3125 48.578125 33.453125 
L 48.578125 21.734375 
Q 48.578125 9.46875 49.140625 6.21875 
Q 49.703125 2.984375 51.375 0 
L 42.1875 0 
Q 40.828125 2.734375 40.4375 6.390625 
z
M 39.703125 26.03125 
Q 34.90625 24.078125 25.34375 22.703125 
Q 19.921875 21.921875 17.671875 20.9375 
Q 15.4375 19.96875 14.203125 18.09375 
Q 12.984375 16.21875 12.984375 13.921875 
Q 12.984375 10.40625 15.640625 8.0625 
Q 18.3125 5.71875 23.4375 5.71875 
Q 28.515625 5.71875 32.46875 7.9375 
Q 36.421875 10.15625 38.28125 14.015625 
Q 39.703125 17 39.703125 22.796875 
z
" id="ArialMT-97"/>
      <path d="M 4.984375 -4.296875 
L 13.53125 -5.5625 
Q 14.0625 -9.515625 16.5 -11.328125 
Q 19.78125 -13.765625 25.4375 -13.765625 
Q 31.546875 -13.765625 34.859375 -11.328125 
Q 38.1875 -8.890625 39.359375 -4.5 
Q 40.046875 -1.8125 39.984375 6.78125 
Q 34.234375 0 25.640625 0 
Q 14.9375 0 9.078125 7.71875 
Q 3.21875 15.4375 3.21875 26.21875 
Q 3.21875 33.640625 5.90625 39.90625 
Q 8.59375 46.1875 13.6875 49.609375 
Q 18.796875 53.03125 25.6875 53.03125 
Q 34.859375 53.03125 40.828125 45.609375 
L 40.828125 51.859375 
L 48.921875 51.859375 
L 48.921875 7.03125 
Q 48.921875 -5.078125 46.453125 -10.125 
Q 44 -15.1875 38.640625 -18.109375 
Q 33.296875 -21.046875 25.484375 -21.046875 
Q 16.21875 -21.046875 10.5 -16.875 
Q 4.78125 -12.703125 4.984375 -4.296875 
z
M 12.25 26.859375 
Q 12.25 16.65625 16.296875 11.96875 
Q 20.359375 7.28125 26.46875 7.28125 
Q 32.515625 7.28125 36.609375 11.9375 
Q 40.71875 16.609375 40.71875 26.5625 
Q 40.71875 36.078125 36.5 40.90625 
Q 32.28125 45.75 26.3125 45.75 
Q 20.453125 45.75 16.34375 40.984375 
Q 12.25 36.234375 12.25 26.859375 
z
" id="ArialMT-103"/>
      <path d="M 42.09375 16.703125 
L 51.171875 15.578125 
Q 49.03125 7.625 43.21875 3.21875 
Q 37.40625 -1.171875 28.375 -1.171875 
Q 17 -1.171875 10.328125 5.828125 
Q 3.65625 12.84375 3.65625 25.484375 
Q 3.65625 38.578125 10.390625 45.796875 
Q 17.140625 53.03125 27.875 53.03125 
Q 38.28125 53.03125 44.875 45.953125 
Q 51.46875 38.875 51.46875 26.03125 
Q 51.46875 25.25 51.421875 23.6875 
L 12.75 23.6875 
Q 13.234375 15.140625 17.578125 10.59375 
Q 21.921875 6.0625 28.421875 6.0625 
Q 33.25 6.0625 36.671875 8.59375 
Q 40.09375 11.140625 42.09375 16.703125 
z
M 13.234375 30.90625 
L 42.1875 30.90625 
Q 41.609375 37.453125 38.875 40.71875 
Q 34.671875 45.796875 27.984375 45.796875 
Q 21.921875 45.796875 17.796875 41.75 
Q 13.671875 37.703125 13.234375 30.90625 
z
" id="ArialMT-101"/>
      <path id="ArialMT-32"/>
      <path d="M 23.390625 -21.046875 
Q 16.109375 -11.859375 11.078125 0.4375 
Q 6.0625 12.75 6.0625 25.921875 
Q 6.0625 37.546875 9.8125 48.1875 
Q 14.203125 60.546875 23.390625 72.796875 
L 29.6875 72.796875 
Q 23.78125 62.640625 21.875 58.296875 
Q 18.890625 51.5625 17.1875 44.234375 
Q 15.09375 35.109375 15.09375 25.875 
Q 15.09375 2.390625 29.6875 -21.046875 
z
" id="ArialMT-40"/>
      <path d="M 12.359375 -21.046875 
L 6.0625 -21.046875 
Q 20.65625 2.390625 20.65625 25.875 
Q 20.65625 35.0625 18.5625 44.09375 
Q 16.890625 51.421875 13.921875 58.15625 
Q 12.015625 62.546875 6.0625 72.796875 
L 12.359375 72.796875 
Q 21.53125 60.546875 25.921875 48.1875 
Q 29.6875 37.546875 29.6875 25.921875 
Q 29.6875 12.75 24.625 0.4375 
Q 19.578125 -11.859375 12.359375 -21.046875 
z
" id="ArialMT-41"/>
     </defs>
     <g style="fill:#262626;" transform="translate(189.515078 300.745344)scale(0.11 -0.11)">
      <use xlink:href="#ArialMT-86"/>
      <use x="66.621094" xlink:href="#ArialMT-111"/>
      <use x="122.236328" xlink:href="#ArialMT-108"/>
      <use x="144.453125" xlink:href="#ArialMT-116"/>
      <use x="172.236328" xlink:href="#ArialMT-97"/>
      <use x="227.851562" xlink:href="#ArialMT-103"/>
      <use x="283.466797" xlink:href="#ArialMT-101"/>
      <use x="339.082031" xlink:href="#ArialMT-32"/>
      <use x="366.865234" xlink:href="#ArialMT-40"/>
      <use x="400.166016" xlink:href="#ArialMT-86"/>
      <use x="466.865234" xlink:href="#ArialMT-41"/>
     </g>
    </g>
   </g>
   <g id="matplotlib.axis_2">
    <g id="ytick_1">
     <g id="line2d_15">
      <path clip-path="url(#pa1781a40a9)" d="M 49.622813 263.876233 
L 384.422813 263.876233 
" style="fill:none;stroke:#ffffff;stroke-linecap:round;"/>
     </g>
     <g id="line2d_16"/>
     <g id="text_9">
      <!-- 0.0 -->
      <defs>
       <path d="M 9.078125 0 
L 9.078125 10.015625 
L 19.09375 10.015625 
L 19.09375 0 
z
" id="ArialMT-46"/>
      </defs>
      <g style="fill:#262626;" transform="translate(28.722813 267.455139)scale(0.1 -0.1)">
       <use xlink:href="#ArialMT-48"/>
       <use x="55.615234" xlink:href="#ArialMT-46"/>
       <use x="83.398438" xlink:href="#ArialMT-48"/>
      </g>
     </g>
    </g>
    <g id="ytick_2">
     <g id="line2d_17">
      <path clip-path="url(#pa1781a40a9)" d="M 49.622813 219.33501 
L 384.422813 219.33501 
" style="fill:none;stroke:#ffffff;stroke-linecap:round;"/>
     </g>
     <g id="line2d_18"/>
     <g id="text_10">
      <!-- 0.5 -->
      <g style="fill:#262626;" transform="translate(28.722813 222.913917)scale(0.1 -0.1)">
       <use xlink:href="#ArialMT-48"/>
       <use x="55.615234" xlink:href="#ArialMT-46"/>
       <use x="83.398438" xlink:href="#ArialMT-53"/>
      </g>
     </g>
    </g>
    <g id="ytick_3">
     <g id="line2d_19">
      <path clip-path="url(#pa1781a40a9)" d="M 49.622813 174.793788 
L 384.422813 174.793788 
" style="fill:none;stroke:#ffffff;stroke-linecap:round;"/>
     </g>
     <g id="line2d_20"/>
     <g id="text_11">
      <!-- 1.0 -->
      <g style="fill:#262626;" transform="translate(28.722813 178.372694)scale(0.1 -0.1)">
       <use xlink:href="#ArialMT-49"/>
       <use x="55.615234" xlink:href="#ArialMT-46"/>
       <use x="83.398438" xlink:href="#ArialMT-48"/>
      </g>
     </g>
    </g>
    <g id="ytick_4">
     <g id="line2d_21">
      <path clip-path="url(#pa1781a40a9)" d="M 49.622813 130.252566 
L 384.422813 130.252566 
" style="fill:none;stroke:#ffffff;stroke-linecap:round;"/>
     </g>
     <g id="line2d_22"/>
     <g id="text_12">
      <!-- 1.5 -->
      <g style="fill:#262626;" transform="translate(28.722813 133.831472)scale(0.1 -0.1)">
       <use xlink:href="#ArialMT-49"/>
       <use x="55.615234" xlink:href="#ArialMT-46"/>
       <use x="83.398438" xlink:href="#ArialMT-53"/>
      </g>
     </g>
    </g>
    <g id="ytick_5">
     <g id="line2d_23">
      <path clip-path="url(#pa1781a40a9)" d="M 49.622813 85.711343 
L 384.422813 85.711343 
" style="fill:none;stroke:#ffffff;stroke-linecap:round;"/>
     </g>
     <g id="line2d_24"/>
     <g id="text_13">
      <!-- 2.0 -->
      <g style="fill:#262626;" transform="translate(28.722813 89.29025)scale(0.1 -0.1)">
       <use xlink:href="#ArialMT-50"/>
       <use x="55.615234" xlink:href="#ArialMT-46"/>
       <use x="83.398438" xlink:href="#ArialMT-48"/>
      </g>
     </g>
    </g>
    <g id="text_14">
     <!-- Current (A) -->
     <defs>
      <path d="M 58.796875 25.09375 
L 68.265625 22.703125 
Q 65.28125 11.03125 57.546875 4.90625 
Q 49.8125 -1.21875 38.625 -1.21875 
Q 27.046875 -1.21875 19.796875 3.484375 
Q 12.546875 8.203125 8.765625 17.140625 
Q 4.984375 26.078125 4.984375 36.328125 
Q 4.984375 47.515625 9.25 55.828125 
Q 13.53125 64.15625 21.40625 68.46875 
Q 29.296875 72.796875 38.765625 72.796875 
Q 49.515625 72.796875 56.828125 67.328125 
Q 64.15625 61.859375 67.046875 51.953125 
L 57.71875 49.75 
Q 55.21875 57.5625 50.484375 61.125 
Q 45.75 64.703125 38.578125 64.703125 
Q 30.328125 64.703125 24.78125 60.734375 
Q 19.234375 56.78125 16.984375 50.109375 
Q 14.75 43.453125 14.75 36.375 
Q 14.75 27.25 17.40625 20.4375 
Q 20.0625 13.625 25.671875 10.25 
Q 31.296875 6.890625 37.84375 6.890625 
Q 45.796875 6.890625 51.3125 11.46875 
Q 56.84375 16.0625 58.796875 25.09375 
z
" id="ArialMT-67"/>
      <path d="M 40.578125 0 
L 40.578125 7.625 
Q 34.515625 -1.171875 24.125 -1.171875 
Q 19.53125 -1.171875 15.546875 0.578125 
Q 11.578125 2.34375 9.640625 5 
Q 7.71875 7.671875 6.9375 11.53125 
Q 6.390625 14.109375 6.390625 19.734375 
L 6.390625 51.859375 
L 15.1875 51.859375 
L 15.1875 23.09375 
Q 15.1875 16.21875 15.71875 13.8125 
Q 16.546875 10.359375 19.234375 8.375 
Q 21.921875 6.390625 25.875 6.390625 
Q 29.828125 6.390625 33.296875 8.421875 
Q 36.765625 10.453125 38.203125 13.9375 
Q 39.65625 17.4375 39.65625 24.078125 
L 39.65625 51.859375 
L 48.4375 51.859375 
L 48.4375 0 
z
" id="ArialMT-117"/>
      <path d="M 6.5 0 
L 6.5 51.859375 
L 14.40625 51.859375 
L 14.40625 44 
Q 17.4375 49.515625 20 51.265625 
Q 22.5625 53.03125 25.640625 53.03125 
Q 30.078125 53.03125 34.671875 50.203125 
L 31.640625 42.046875 
Q 28.421875 43.953125 25.203125 43.953125 
Q 22.3125 43.953125 20.015625 42.21875 
Q 17.71875 40.484375 16.75 37.40625 
Q 15.28125 32.71875 15.28125 27.15625 
L 15.28125 0 
z
" id="ArialMT-114"/>
      <path d="M 6.59375 0 
L 6.59375 51.859375 
L 14.5 51.859375 
L 14.5 44.484375 
Q 20.21875 53.03125 31 53.03125 
Q 35.6875 53.03125 39.625 51.34375 
Q 43.5625 49.65625 45.515625 46.921875 
Q 47.46875 44.1875 48.25 40.4375 
Q 48.734375 37.984375 48.734375 31.890625 
L 48.734375 0 
L 39.9375 0 
L 39.9375 31.546875 
Q 39.9375 36.921875 38.90625 39.578125 
Q 37.890625 42.234375 35.28125 43.8125 
Q 32.671875 45.40625 29.15625 45.40625 
Q 23.53125 45.40625 19.453125 41.84375 
Q 15.375 38.28125 15.375 28.328125 
L 15.375 0 
z
" id="ArialMT-110"/>
      <path d="M -0.140625 0 
L 27.34375 71.578125 
L 37.546875 71.578125 
L 66.84375 0 
L 56.0625 0 
L 47.703125 21.6875 
L 17.78125 21.6875 
L 9.90625 0 
z
M 20.515625 29.390625 
L 44.78125 29.390625 
L 37.3125 49.21875 
Q 33.890625 58.25 32.234375 64.0625 
Q 30.859375 57.171875 28.375 50.390625 
z
" id="ArialMT-65"/>
     </defs>
     <g style="fill:#262626;" transform="translate(22.407656 191.069875)rotate(-90)scale(0.11 -0.11)">
      <use xlink:href="#ArialMT-67"/>
      <use x="72.216797" xlink:href="#ArialMT-117"/>
      <use x="127.832031" xlink:href="#ArialMT-114"/>
      <use x="161.132812" xlink:href="#ArialMT-114"/>
      <use x="194.433594" xlink:href="#ArialMT-101"/>
      <use x="250.048828" xlink:href="#ArialMT-110"/>
      <use x="305.664062" xlink:href="#ArialMT-116"/>
      <use x="333.447266" xlink:href="#ArialMT-32"/>
      <use x="361.230469" xlink:href="#ArialMT-40"/>
      <use x="394.53125" xlink:href="#ArialMT-65"/>
      <use x="461.230469" xlink:href="#ArialMT-41"/>
     </g>
    </g>
   </g>
   <g id="line2d_25">
    <path clip-path="url(#pa1781a40a9)" d="M 364.845828 262.669651 
L 362.229673 256.081078 
L 359.813111 250.381565 
L 356.815635 243.79211 
L 353.541486 237.160319 
L 350.165242 230.932486 
L 347.208604 225.926229 
L 343.971208 220.933202 
L 341.924736 217.999656 
L 338.77463 213.821601 
L 336.015034 210.469984 
L 332.999692 207.121895 
L 329.666838 203.764987 
L 326.927149 201.252156 
L 323.922016 198.728741 
L 320.609071 196.214147 
L 316.912763 193.68985 
L 313.467095 191.593326 
L 309.609479 189.492391 
L 306.155644 187.807763 
L 301.255649 185.716531 
L 296.746674 184.020436 
L 291.547034 182.340218 
L 285.451521 180.665291 
L 280.100271 179.403143 
L 273.868973 178.140113 
L 266.475336 176.878846 
L 257.507412 175.616698 
L 246.324561 174.356314 
L 237.08813 173.523702 
L 226.487215 172.69109 
L 213.759174 171.868179 
L 198.640095 171.052325 
L 179.635835 170.236471 
L 155.055208 169.425027 
L 121.250401 168.599471 
L 72.057498 167.729815 
L 64.840994 167.634558 
L 64.840994 167.634558 
" style="fill:none;stroke:#4c72b0;stroke-linecap:round;stroke-width:1.75;"/>
   </g>
   <g id="line2d_26">
    <path clip-path="url(#pa1781a40a9)" d="M 364.722868 262.708739 
L 358.605385 248.755344 
L 354.265144 240.069806 
L 350.586723 233.420315 
L 346.488405 226.759689 
L 343.376619 222.165948 
L 339.958958 217.559357 
L 335.803631 212.539048 
L 332.724068 209.184751 
L 329.336152 205.827028 
L 325.568 202.466735 
L 322.43688 199.945017 
L 318.37029 197.013005 
L 314.442509 194.486148 
L 310.783421 192.380718 
L 306.685599 190.274432 
L 302.030066 188.169003 
L 296.650745 186.068713 
L 291.64472 184.387282 
L 287.353559 183.121283 
L 282.459076 181.857855 
L 274.636233 180.17471 
L 266.173384 178.513837 
L 258.66038 177.261543 
L 249.724591 176.017815 
L 238.897042 174.770661 
L 225.430647 173.52265 
L 214.421655 172.690928 
L 201.327068 171.867772 
L 176.648426 170.637749 
L 155.324485 169.819733 
L 128.777879 169.02313 
L 79.799344 167.915595 
L 64.851169 167.677471 
L 64.851169 167.677471 
" style="fill:none;stroke:#55a868;stroke-linecap:round;stroke-width:1.75;"/>
   </g>
   <g id="line2d_27">
    <path clip-path="url(#pa1781a40a9)" d="M 366.694716 262.553819 
L 360.780283 242.481087 
L 357.716618 233.085193 
L 355.092969 225.545439 
L 352.281757 217.985718 
L 348.201612 207.887916 
L 344.533036 199.67774 
L 341.768493 193.984911 
L 338.779498 188.282867 
L 335.523826 182.579287 
L 332.769505 178.145899 
L 330.224081 174.336089 
L 326.999077 169.892718 
L 323.970969 166.075996 
L 320.061496 161.631089 
L 316.968941 158.454839 
L 313.56393 155.280125 
L 309.778906 152.096196 
L 306.417453 149.552738 
L 302.687542 147.000065 
L 298.501615 144.454304 
L 294.999268 142.548247 
L 291.113351 140.639886 
L 286.75764 138.723078 
L 281.814797 136.81702 
L 276.125705 134.90098 
L 269.488134 133.000298 
L 264.367507 131.715515 
L 258.550855 130.450697 
L 251.854616 129.174361 
L 243.997446 127.896489 
L 234.879343 126.623992 
L 224.325188 125.37223 
L 211.427395 124.106645 
L 195.767724 122.867938 
L 175.801234 121.623088 
L 149.494516 120.379005 
L 133.157489 119.763876 
L 91.313328 118.510578 
L 65.439071 117.828637 
L 65.439071 117.828637 
" style="fill:none;stroke:#c44e52;stroke-linecap:round;stroke-width:1.75;"/>
   </g>
   <g id="line2d_28">
    <path clip-path="url(#pa1781a40a9)" d="M 363.655574 262.619395 
L 360.028623 250.384115 
L 356.363005 238.944768 
L 352.585865 228.062185 
L 348.18107 216.51923 
L 345.794299 210.731776 
L 342.374138 203.001938 
L 339.289661 196.552175 
L 336.279717 190.75407 
L 333.020393 184.943377 
L 329.447802 179.129779 
L 325.020591 172.669365 
L 321.046188 167.501615 
L 318.31981 164.250106 
L 314.751702 160.372115 
L 311.48061 157.13513 
L 307.876636 153.888462 
L 303.877575 150.653414 
L 300.326279 148.05453 
L 296.39783 145.455647 
L 291.993035 142.862573 
L 288.313406 140.911474 
L 282.798445 138.320337 
L 278.08935 136.375047 
L 272.759324 134.427821 
L 266.668826 132.474785 
L 259.588651 130.527559 
L 251.223463 128.587111 
L 244.710979 127.291543 
L 237.227871 125.983386 
L 228.49954 124.691691 
L 218.18694 123.397091 
L 205.690436 122.103459 
L 190.352111 120.803049 
L 172.073332 119.53556 
L 149.84537 118.287438 
L 120.995644 117.049966 
L 83.142988 115.807654 
L 65.455438 115.376766 
L 65.455438 115.376766 
" style="fill:none;stroke:#8172b2;stroke-linecap:round;stroke-width:1.75;"/>
   </g>
   <g id="line2d_29">
    <path clip-path="url(#pa1781a40a9)" d="M 367.266532 262.438065 
L 365.116489 252.845428 
L 361.539695 237.745953 
L 358.763527 226.745128 
L 355.345867 214.009765 
L 351.387845 200.398138 
L 348.446595 191.021354 
L 345.295149 181.632579 
L 342.199722 173.096082 
L 339.550465 166.249582 
L 335.963756 157.689959 
L 332.837593 150.834893 
L 329.871556 144.825254 
L 327.132569 139.668751 
L 324.172976 134.520814 
L 320.384995 128.513745 
L 317.417966 124.200099 
L 313.494646 119.0376 
L 309.86332 114.75222 
L 306.662299 111.298563 
L 303.144499 107.860323 
L 300.254806 105.273506 
L 297.11377 102.694398 
L 293.67281 100.10758 
L 289.867973 97.530185 
L 285.62242 94.933946 
L 280.824112 92.351412 
L 277.257728 90.626296 
L 273.323502 88.898611 
L 268.944098 87.173495 
L 264.038709 85.453518 
L 258.464066 83.724976 
L 252.068965 82.00243 
L 244.599588 80.276458 
L 235.736177 78.553912 
L 225.004802 76.833935 
L 211.707952 75.109676 
L 194.772338 73.375138 
L 184.390959 72.517719 
L 172.605632 71.657731 
L 159.42429 70.813161 
L 144.283271 69.984009 
L 126.176214 69.128304 
L 80.443812 67.466574 
L 66.065247 67.019448 
L 66.065247 67.019448 
" style="fill:none;stroke:#ccb974;stroke-linecap:round;stroke-width:1.75;"/>
   </g>
   <g id="line2d_30">
    <path clip-path="url(#pa1781a40a9)" d="M 369.204631 262.578676 
L 366.703419 252.001308 
L 362.662947 235.826984 
L 355.749507 210.958916 
L 352.020415 198.898794 
L 348.576245 188.540616 
L 345.165995 179.027548 
L 342.17363 171.256277 
L 337.809568 160.86059 
L 333.370205 151.332285 
L 330.727888 146.11979 
L 327.891553 140.895574 
L 322.094738 131.353203 
L 319.139685 126.995196 
L 315.937699 122.655943 
L 312.443329 118.293248 
L 308.585343 113.943446 
L 304.287085 109.591299 
L 300.456913 106.117084 
L 297.305806 103.495013 
L 293.875882 100.88349 
L 290.101338 98.270796 
L 285.918405 95.660446 
L 281.234144 93.033686 
L 277.773015 91.278996 
L 271.93007 88.674507 
L 267.503596 86.925678 
L 262.534412 85.181537 
L 256.869204 83.438569 
L 247.086188 80.830563 
L 239.878329 79.123931 
L 231.444624 77.389168 
L 221.389575 75.659093 
L 215.566303 74.790539 
L 201.931406 73.085079 
L 185.510376 71.370242 
L 164.567897 69.66361 
L 151.899702 68.809122 
L 137.421571 67.980421 
L 120.455795 67.132965 
L 79.247868 65.483768 
L 66.041712 65.037184 
L 66.041712 65.037184 
" style="fill:none;stroke:#64b5cd;stroke-linecap:round;stroke-width:1.75;"/>
   </g>
   <g id="patch_3">
    <path d="M 49.622813 272.592375 
L 49.622813 55.152375 
" style="fill:none;"/>
   </g>
   <g id="patch_4">
    <path d="M 384.422813 272.592375 
L 384.422813 55.152375 
" style="fill:none;"/>
   </g>
   <g id="patch_5">
    <path d="M 49.622813 272.592375 
L 384.422812 272.592375 
" style="fill:none;"/>
   </g>
   <g id="patch_6">
    <path d="M 49.622813 55.152375 
L 384.422812 55.152375 
" style="fill:none;"/>
   </g>
   <g id="text_15">
    <!-- IV Averaged Data for Irradiances -  -->
    <defs>
     <path d="M 9.328125 0 
L 9.328125 71.578125 
L 18.796875 71.578125 
L 18.796875 0 
z
" id="ArialMT-73"/>
     <path d="M 21 0 
L 1.265625 51.859375 
L 10.546875 51.859375 
L 21.6875 20.796875 
Q 23.484375 15.765625 25 10.359375 
Q 26.171875 14.453125 28.265625 20.21875 
L 39.796875 51.859375 
L 48.828125 51.859375 
L 29.203125 0 
z
" id="ArialMT-118"/>
     <path d="M 40.234375 0 
L 40.234375 6.546875 
Q 35.296875 -1.171875 25.734375 -1.171875 
Q 19.53125 -1.171875 14.328125 2.25 
Q 9.125 5.671875 6.265625 11.796875 
Q 3.421875 17.921875 3.421875 25.875 
Q 3.421875 33.640625 6 39.96875 
Q 8.59375 46.296875 13.765625 49.65625 
Q 18.953125 53.03125 25.34375 53.03125 
Q 30.03125 53.03125 33.6875 51.046875 
Q 37.359375 49.078125 39.65625 45.90625 
L 39.65625 71.578125 
L 48.390625 71.578125 
L 48.390625 0 
z
M 12.453125 25.875 
Q 12.453125 15.921875 16.640625 10.984375 
Q 20.84375 6.0625 26.5625 6.0625 
Q 32.328125 6.0625 36.34375 10.765625 
Q 40.375 15.484375 40.375 25.140625 
Q 40.375 35.796875 36.265625 40.765625 
Q 32.171875 45.75 26.171875 45.75 
Q 20.3125 45.75 16.375 40.96875 
Q 12.453125 36.1875 12.453125 25.875 
z
" id="ArialMT-100"/>
     <path d="M 7.71875 0 
L 7.71875 71.578125 
L 32.375 71.578125 
Q 40.71875 71.578125 45.125 70.5625 
Q 51.265625 69.140625 55.609375 65.4375 
Q 61.28125 60.640625 64.078125 53.1875 
Q 66.890625 45.75 66.890625 36.1875 
Q 66.890625 28.03125 64.984375 21.734375 
Q 63.09375 15.4375 60.109375 11.296875 
Q 57.125 7.171875 53.578125 4.796875 
Q 50.046875 2.4375 45.046875 1.21875 
Q 40.046875 0 33.546875 0 
z
M 17.1875 8.453125 
L 32.46875 8.453125 
Q 39.546875 8.453125 43.578125 9.765625 
Q 47.609375 11.078125 50 13.484375 
Q 53.375 16.84375 55.25 22.53125 
Q 57.125 28.21875 57.125 36.328125 
Q 57.125 47.5625 53.4375 53.59375 
Q 49.75 59.625 44.484375 61.671875 
Q 40.671875 63.140625 32.234375 63.140625 
L 17.1875 63.140625 
z
" id="ArialMT-68"/>
     <path d="M 8.6875 0 
L 8.6875 45.015625 
L 0.921875 45.015625 
L 0.921875 51.859375 
L 8.6875 51.859375 
L 8.6875 57.375 
Q 8.6875 62.59375 9.625 65.140625 
Q 10.890625 68.5625 14.078125 70.671875 
Q 17.28125 72.796875 23.046875 72.796875 
Q 26.765625 72.796875 31.25 71.921875 
L 29.9375 64.265625 
Q 27.203125 64.75 24.75 64.75 
Q 20.75 64.75 19.09375 63.03125 
Q 17.4375 61.328125 17.4375 56.640625 
L 17.4375 51.859375 
L 27.546875 51.859375 
L 27.546875 45.015625 
L 17.4375 45.015625 
L 17.4375 0 
z
" id="ArialMT-102"/>
     <path d="M 6.640625 61.46875 
L 6.640625 71.578125 
L 15.4375 71.578125 
L 15.4375 61.46875 
z
M 6.640625 0 
L 6.640625 51.859375 
L 15.4375 51.859375 
L 15.4375 0 
z
" id="ArialMT-105"/>
     <path d="M 40.4375 19 
L 49.078125 17.875 
Q 47.65625 8.9375 41.8125 3.875 
Q 35.984375 -1.171875 27.484375 -1.171875 
Q 16.84375 -1.171875 10.375 5.78125 
Q 3.90625 12.75 3.90625 25.734375 
Q 3.90625 34.125 6.6875 40.421875 
Q 9.46875 46.734375 15.15625 49.875 
Q 20.84375 53.03125 27.546875 53.03125 
Q 35.984375 53.03125 41.359375 48.75 
Q 46.734375 44.484375 48.25 36.625 
L 39.703125 35.296875 
Q 38.484375 40.53125 35.375 43.15625 
Q 32.28125 45.796875 27.875 45.796875 
Q 21.234375 45.796875 17.078125 41.03125 
Q 12.9375 36.28125 12.9375 25.984375 
Q 12.9375 15.53125 16.9375 10.796875 
Q 20.953125 6.0625 27.390625 6.0625 
Q 32.5625 6.0625 36.03125 9.234375 
Q 39.5 12.40625 40.4375 19 
z
" id="ArialMT-99"/>
     <path d="M 3.078125 15.484375 
L 11.765625 16.84375 
Q 12.5 11.625 15.84375 8.84375 
Q 19.1875 6.0625 25.203125 6.0625 
Q 31.25 6.0625 34.171875 8.515625 
Q 37.109375 10.984375 37.109375 14.3125 
Q 37.109375 17.28125 34.515625 19 
Q 32.71875 20.171875 25.53125 21.96875 
Q 15.875 24.421875 12.140625 26.203125 
Q 8.40625 27.984375 6.46875 31.125 
Q 4.546875 34.28125 4.546875 38.09375 
Q 4.546875 41.546875 6.125 44.5 
Q 7.71875 47.46875 10.453125 49.421875 
Q 12.5 50.921875 16.03125 51.96875 
Q 19.578125 53.03125 23.640625 53.03125 
Q 29.734375 53.03125 34.34375 51.265625 
Q 38.96875 49.515625 41.15625 46.5 
Q 43.359375 43.5 44.1875 38.484375 
L 35.59375 37.3125 
Q 35.015625 41.3125 32.203125 43.546875 
Q 29.390625 45.796875 24.265625 45.796875 
Q 18.21875 45.796875 15.625 43.796875 
Q 13.03125 41.796875 13.03125 39.109375 
Q 13.03125 37.40625 14.109375 36.03125 
Q 15.1875 34.625 17.484375 33.6875 
Q 18.796875 33.203125 25.25 31.453125 
Q 34.578125 28.953125 38.25 27.359375 
Q 41.9375 25.78125 44.03125 22.75 
Q 46.140625 19.734375 46.140625 15.234375 
Q 46.140625 10.84375 43.578125 6.953125 
Q 41.015625 3.078125 36.171875 0.953125 
Q 31.34375 -1.171875 25.25 -1.171875 
Q 15.140625 -1.171875 9.84375 3.03125 
Q 4.546875 7.234375 3.078125 15.484375 
z
" id="ArialMT-115"/>
     <path d="M 3.171875 21.484375 
L 3.171875 30.328125 
L 30.171875 30.328125 
L 30.171875 21.484375 
z
" id="ArialMT-45"/>
    </defs>
    <g style="fill:#262626;" transform="translate(49.622813 23.27625)scale(0.12 -0.12)">
     <use xlink:href="#ArialMT-73"/>
     <use x="27.783203" xlink:href="#ArialMT-86"/>
     <use x="94.482422" xlink:href="#ArialMT-32"/>
     <use x="122.1875" xlink:href="#ArialMT-65"/>
     <use x="188.871094" xlink:href="#ArialMT-118"/>
     <use x="238.871094" xlink:href="#ArialMT-101"/>
     <use x="294.486328" xlink:href="#ArialMT-114"/>
     <use x="327.787109" xlink:href="#ArialMT-97"/>
     <use x="383.402344" xlink:href="#ArialMT-103"/>
     <use x="439.017578" xlink:href="#ArialMT-101"/>
     <use x="494.632812" xlink:href="#ArialMT-100"/>
     <use x="550.248047" xlink:href="#ArialMT-32"/>
     <use x="578.03125" xlink:href="#ArialMT-68"/>
     <use x="650.248047" xlink:href="#ArialMT-97"/>
     <use x="705.863281" xlink:href="#ArialMT-116"/>
     <use x="733.646484" xlink:href="#ArialMT-97"/>
     <use x="789.261719" xlink:href="#ArialMT-32"/>
     <use x="817.044922" xlink:href="#ArialMT-102"/>
     <use x="844.828125" xlink:href="#ArialMT-111"/>
     <use x="900.443359" xlink:href="#ArialMT-114"/>
     <use x="933.744141" xlink:href="#ArialMT-32"/>
     <use x="961.527344" xlink:href="#ArialMT-73"/>
     <use x="989.310547" xlink:href="#ArialMT-114"/>
     <use x="1022.611328" xlink:href="#ArialMT-114"/>
     <use x="1055.912109" xlink:href="#ArialMT-97"/>
     <use x="1111.527344" xlink:href="#ArialMT-100"/>
     <use x="1167.142578" xlink:href="#ArialMT-105"/>
     <use x="1189.359375" xlink:href="#ArialMT-97"/>
     <use x="1244.974609" xlink:href="#ArialMT-110"/>
     <use x="1300.589844" xlink:href="#ArialMT-99"/>
     <use x="1350.589844" xlink:href="#ArialMT-101"/>
     <use x="1406.205078" xlink:href="#ArialMT-115"/>
     <use x="1456.205078" xlink:href="#ArialMT-32"/>
     <use x="1483.988281" xlink:href="#ArialMT-45"/>
     <use x="1517.289062" xlink:href="#ArialMT-32"/>
    </g>
    <!-- Averaged September 2009 &amp; 2010 -->
    <defs>
     <path d="M 4.5 23 
L 13.421875 23.78125 
Q 14.0625 18.40625 16.375 14.96875 
Q 18.703125 11.53125 23.578125 9.40625 
Q 28.46875 7.28125 34.578125 7.28125 
Q 39.984375 7.28125 44.140625 8.890625 
Q 48.296875 10.5 50.3125 13.296875 
Q 52.34375 16.109375 52.34375 19.4375 
Q 52.34375 22.796875 50.390625 25.3125 
Q 48.4375 27.828125 43.953125 29.546875 
Q 41.0625 30.671875 31.203125 33.03125 
Q 21.34375 35.40625 17.390625 37.5 
Q 12.25 40.1875 9.734375 44.15625 
Q 7.234375 48.140625 7.234375 53.078125 
Q 7.234375 58.5 10.296875 63.203125 
Q 13.375 67.921875 19.28125 70.359375 
Q 25.203125 72.796875 32.421875 72.796875 
Q 40.375 72.796875 46.453125 70.234375 
Q 52.546875 67.671875 55.8125 62.6875 
Q 59.078125 57.71875 59.328125 51.421875 
L 50.25 50.734375 
Q 49.515625 57.515625 45.28125 60.984375 
Q 41.0625 64.453125 32.8125 64.453125 
Q 24.21875 64.453125 20.28125 61.296875 
Q 16.359375 58.15625 16.359375 53.71875 
Q 16.359375 49.859375 19.140625 47.359375 
Q 21.875 44.875 33.421875 42.265625 
Q 44.96875 39.65625 49.265625 37.703125 
Q 55.515625 34.8125 58.484375 30.390625 
Q 61.46875 25.984375 61.46875 20.21875 
Q 61.46875 14.5 58.203125 9.4375 
Q 54.9375 4.390625 48.796875 1.578125 
Q 42.671875 -1.21875 35.015625 -1.21875 
Q 25.296875 -1.21875 18.71875 1.609375 
Q 12.15625 4.4375 8.421875 10.125 
Q 4.6875 15.828125 4.5 23 
z
" id="ArialMT-83"/>
     <path d="M 6.59375 -19.875 
L 6.59375 51.859375 
L 14.59375 51.859375 
L 14.59375 45.125 
Q 17.4375 49.078125 21 51.046875 
Q 24.5625 53.03125 29.640625 53.03125 
Q 36.28125 53.03125 41.359375 49.609375 
Q 46.4375 46.1875 49.015625 39.953125 
Q 51.609375 33.734375 51.609375 26.3125 
Q 51.609375 18.359375 48.75 11.984375 
Q 45.90625 5.609375 40.453125 2.21875 
Q 35.015625 -1.171875 29 -1.171875 
Q 24.609375 -1.171875 21.109375 0.6875 
Q 17.625 2.546875 15.375 5.375 
L 15.375 -19.875 
z
M 14.546875 25.640625 
Q 14.546875 15.625 18.59375 10.84375 
Q 22.65625 6.0625 28.421875 6.0625 
Q 34.28125 6.0625 38.453125 11.015625 
Q 42.625 15.96875 42.625 26.375 
Q 42.625 36.28125 38.546875 41.203125 
Q 34.46875 46.140625 28.8125 46.140625 
Q 23.1875 46.140625 18.859375 40.890625 
Q 14.546875 35.640625 14.546875 25.640625 
z
" id="ArialMT-112"/>
     <path d="M 6.59375 0 
L 6.59375 51.859375 
L 14.453125 51.859375 
L 14.453125 44.578125 
Q 16.890625 48.390625 20.9375 50.703125 
Q 25 53.03125 30.171875 53.03125 
Q 35.9375 53.03125 39.625 50.640625 
Q 43.3125 48.25 44.828125 43.953125 
Q 50.984375 53.03125 60.84375 53.03125 
Q 68.5625 53.03125 72.703125 48.75 
Q 76.859375 44.484375 76.859375 35.59375 
L 76.859375 0 
L 68.109375 0 
L 68.109375 32.671875 
Q 68.109375 37.9375 67.25 40.25 
Q 66.40625 42.578125 64.15625 43.984375 
Q 61.921875 45.40625 58.890625 45.40625 
Q 53.421875 45.40625 49.796875 41.765625 
Q 46.1875 38.140625 46.1875 30.125 
L 46.1875 0 
L 37.40625 0 
L 37.40625 33.6875 
Q 37.40625 39.546875 35.25 42.46875 
Q 33.109375 45.40625 28.21875 45.40625 
Q 24.515625 45.40625 21.359375 43.453125 
Q 18.21875 41.5 16.796875 37.734375 
Q 15.375 33.984375 15.375 26.90625 
L 15.375 0 
z
" id="ArialMT-109"/>
     <path d="M 14.703125 0 
L 6.546875 0 
L 6.546875 71.578125 
L 15.328125 71.578125 
L 15.328125 46.046875 
Q 20.90625 53.03125 29.546875 53.03125 
Q 34.328125 53.03125 38.59375 51.09375 
Q 42.875 49.171875 45.625 45.671875 
Q 48.390625 42.1875 49.953125 37.25 
Q 51.515625 32.328125 51.515625 26.703125 
Q 51.515625 13.375 44.921875 6.09375 
Q 38.328125 -1.171875 29.109375 -1.171875 
Q 19.921875 -1.171875 14.703125 6.5 
z
M 14.59375 26.3125 
Q 14.59375 17 17.140625 12.84375 
Q 21.296875 6.0625 28.375 6.0625 
Q 34.125 6.0625 38.328125 11.0625 
Q 42.53125 16.0625 42.53125 25.984375 
Q 42.53125 36.140625 38.5 40.96875 
Q 34.46875 45.796875 28.765625 45.796875 
Q 23 45.796875 18.796875 40.796875 
Q 14.59375 35.796875 14.59375 26.3125 
z
" id="ArialMT-98"/>
     <path d="M 5.46875 16.546875 
L 13.921875 17.328125 
Q 14.984375 11.375 18.015625 8.6875 
Q 21.046875 6 25.78125 6 
Q 29.828125 6 32.875 7.859375 
Q 35.9375 9.71875 37.890625 12.8125 
Q 39.84375 15.921875 41.15625 21.1875 
Q 42.484375 26.46875 42.484375 31.9375 
Q 42.484375 32.515625 42.4375 33.6875 
Q 39.796875 29.5 35.234375 26.875 
Q 30.671875 24.265625 25.34375 24.265625 
Q 16.453125 24.265625 10.296875 30.703125 
Q 4.15625 37.15625 4.15625 47.703125 
Q 4.15625 58.59375 10.578125 65.234375 
Q 17 71.875 26.65625 71.875 
Q 33.640625 71.875 39.421875 68.109375 
Q 45.21875 64.359375 48.21875 57.390625 
Q 51.21875 50.4375 51.21875 37.25 
Q 51.21875 23.53125 48.234375 15.40625 
Q 45.265625 7.28125 39.375 3.03125 
Q 33.5 -1.21875 25.59375 -1.21875 
Q 17.1875 -1.21875 11.859375 3.4375 
Q 6.546875 8.109375 5.46875 16.546875 
z
M 41.453125 48.140625 
Q 41.453125 55.71875 37.421875 60.15625 
Q 33.40625 64.59375 27.734375 64.59375 
Q 21.875 64.59375 17.53125 59.8125 
Q 13.1875 55.03125 13.1875 47.40625 
Q 13.1875 40.578125 17.3125 36.296875 
Q 21.4375 32.03125 27.484375 32.03125 
Q 33.59375 32.03125 37.515625 36.296875 
Q 41.453125 40.578125 41.453125 48.140625 
z
" id="ArialMT-57"/>
     <path d="M 47.515625 8.453125 
Q 43.171875 3.609375 38.03125 1.1875 
Q 32.90625 -1.21875 26.953125 -1.21875 
Q 15.96875 -1.21875 9.515625 6.203125 
Q 4.296875 12.25 4.296875 19.734375 
Q 4.296875 26.375 8.5625 31.71875 
Q 12.84375 37.0625 21.34375 41.109375 
Q 16.5 46.6875 14.890625 50.140625 
Q 13.28125 53.609375 13.28125 56.84375 
Q 13.28125 63.28125 18.328125 68.03125 
Q 23.390625 72.796875 31.0625 72.796875 
Q 38.375 72.796875 43.03125 68.296875 
Q 47.703125 63.8125 47.703125 57.515625 
Q 47.703125 47.3125 34.1875 40.09375 
L 47.015625 23.734375 
Q 49.21875 28.03125 50.4375 33.6875 
L 59.578125 31.734375 
Q 57.234375 22.359375 53.21875 16.3125 
Q 58.15625 9.765625 64.40625 5.328125 
L 58.5 -1.65625 
Q 53.171875 1.765625 47.515625 8.453125 
z
M 29.640625 45.75 
Q 35.359375 49.125 37.03125 51.65625 
Q 38.71875 54.203125 38.71875 57.28125 
Q 38.71875 60.9375 36.390625 63.25 
Q 34.078125 65.578125 30.609375 65.578125 
Q 27.046875 65.578125 24.671875 63.28125 
Q 22.3125 60.984375 22.3125 57.671875 
Q 22.3125 56 23.171875 54.171875 
Q 24.03125 52.34375 25.734375 50.296875 
z
M 42 15.375 
L 25.875 35.359375 
Q 18.75 31.109375 16.25 27.46875 
Q 13.765625 23.828125 13.765625 20.265625 
Q 13.765625 15.921875 17.234375 11.234375 
Q 20.703125 6.546875 27.046875 6.546875 
Q 31 6.546875 35.21875 9 
Q 39.453125 11.46875 42 15.375 
z
" id="ArialMT-38"/>
    </defs>
    <g style="fill:#262626;" transform="translate(49.622813 36.284625)scale(0.12 -0.12)">
     <use xlink:href="#ArialMT-65"/>
     <use x="66.683594" xlink:href="#ArialMT-118"/>
     <use x="116.683594" xlink:href="#ArialMT-101"/>
     <use x="172.298828" xlink:href="#ArialMT-114"/>
     <use x="205.599609" xlink:href="#ArialMT-97"/>
     <use x="261.214844" xlink:href="#ArialMT-103"/>
     <use x="316.830078" xlink:href="#ArialMT-101"/>
     <use x="372.445312" xlink:href="#ArialMT-100"/>
     <use x="428.060547" xlink:href="#ArialMT-32"/>
     <use x="455.84375" xlink:href="#ArialMT-83"/>
     <use x="522.542969" xlink:href="#ArialMT-101"/>
     <use x="578.158203" xlink:href="#ArialMT-112"/>
     <use x="633.773438" xlink:href="#ArialMT-116"/>
     <use x="661.556641" xlink:href="#ArialMT-101"/>
     <use x="717.171875" xlink:href="#ArialMT-109"/>
     <use x="800.472656" xlink:href="#ArialMT-98"/>
     <use x="856.087891" xlink:href="#ArialMT-101"/>
     <use x="911.703125" xlink:href="#ArialMT-114"/>
     <use x="945.003906" xlink:href="#ArialMT-32"/>
     <use x="972.787109" xlink:href="#ArialMT-50"/>
     <use x="1028.402344" xlink:href="#ArialMT-48"/>
     <use x="1084.017578" xlink:href="#ArialMT-48"/>
     <use x="1139.632812" xlink:href="#ArialMT-57"/>
     <use x="1195.248047" xlink:href="#ArialMT-32"/>
     <use x="1223.03125" xlink:href="#ArialMT-38"/>
     <use x="1289.730469" xlink:href="#ArialMT-32"/>
     <use x="1317.513672" xlink:href="#ArialMT-50"/>
     <use x="1373.128906" xlink:href="#ArialMT-48"/>
     <use x="1428.744141" xlink:href="#ArialMT-49"/>
     <use x="1484.359375" xlink:href="#ArialMT-48"/>
    </g>
    <!-- Sharp at ['G=500', 'G=750', 'G=1000'] -->
    <defs>
     <path d="M 6.59375 0 
L 6.59375 71.578125 
L 15.375 71.578125 
L 15.375 45.90625 
Q 21.53125 53.03125 30.90625 53.03125 
Q 36.671875 53.03125 40.921875 50.75 
Q 45.171875 48.484375 47 44.484375 
Q 48.828125 40.484375 48.828125 32.859375 
L 48.828125 0 
L 40.046875 0 
L 40.046875 32.859375 
Q 40.046875 39.453125 37.1875 42.453125 
Q 34.328125 45.453125 29.109375 45.453125 
Q 25.203125 45.453125 21.75 43.421875 
Q 18.3125 41.40625 16.84375 37.9375 
Q 15.375 34.46875 15.375 28.375 
L 15.375 0 
z
" id="ArialMT-104"/>
     <path d="M 6.78125 -19.875 
L 6.78125 71.578125 
L 26.171875 71.578125 
L 26.171875 64.3125 
L 15.578125 64.3125 
L 15.578125 -12.59375 
L 26.171875 -12.59375 
L 26.171875 -19.875 
z
" id="ArialMT-91"/>
     <path d="M 6.640625 46.234375 
L 4.390625 59.625 
L 4.390625 71.578125 
L 14.40625 71.578125 
L 14.40625 59.625 
L 12.0625 46.234375 
z
" id="ArialMT-39"/>
     <path d="M 41.21875 28.078125 
L 41.21875 36.46875 
L 71.53125 36.53125 
L 71.53125 9.96875 
Q 64.546875 4.390625 57.125 1.578125 
Q 49.703125 -1.21875 41.890625 -1.21875 
Q 31.34375 -1.21875 22.71875 3.296875 
Q 14.109375 7.8125 9.71875 16.359375 
Q 5.328125 24.90625 5.328125 35.453125 
Q 5.328125 45.90625 9.6875 54.953125 
Q 14.0625 64.015625 22.265625 68.40625 
Q 30.46875 72.796875 41.15625 72.796875 
Q 48.921875 72.796875 55.1875 70.28125 
Q 61.46875 67.78125 65.03125 63.28125 
Q 68.609375 58.796875 70.453125 51.5625 
L 61.921875 49.21875 
Q 60.296875 54.6875 57.90625 57.8125 
Q 55.515625 60.9375 51.0625 62.8125 
Q 46.625 64.703125 41.21875 64.703125 
Q 34.71875 64.703125 29.984375 62.71875 
Q 25.25 60.75 22.34375 57.515625 
Q 19.4375 54.296875 17.828125 50.4375 
Q 15.09375 43.796875 15.09375 36.03125 
Q 15.09375 26.46875 18.390625 20.015625 
Q 21.6875 13.578125 27.984375 10.453125 
Q 34.28125 7.328125 41.359375 7.328125 
Q 47.515625 7.328125 53.375 9.6875 
Q 59.234375 12.0625 62.25 14.75 
L 62.25 28.078125 
z
" id="ArialMT-71"/>
     <path d="M 52.828125 42.09375 
L 5.5625 42.09375 
L 5.5625 50.296875 
L 52.828125 50.296875 
z
M 52.828125 20.359375 
L 5.5625 20.359375 
L 5.5625 28.5625 
L 52.828125 28.5625 
z
" id="ArialMT-61"/>
     <path d="M 8.890625 0 
L 8.890625 10.015625 
L 18.890625 10.015625 
L 18.890625 0 
Q 18.890625 -5.515625 16.9375 -8.90625 
Q 14.984375 -12.3125 10.75 -14.15625 
L 8.296875 -10.40625 
Q 11.078125 -9.1875 12.390625 -6.8125 
Q 13.71875 -4.4375 13.875 0 
z
" id="ArialMT-44"/>
     <path d="M 4.734375 62.203125 
L 4.734375 70.65625 
L 51.078125 70.65625 
L 51.078125 63.8125 
Q 44.234375 56.546875 37.515625 44.484375 
Q 30.8125 32.421875 27.15625 19.671875 
Q 24.515625 10.6875 23.78125 0 
L 14.75 0 
Q 14.890625 8.453125 18.0625 20.40625 
Q 21.234375 32.375 27.171875 43.484375 
Q 33.109375 54.59375 39.796875 62.203125 
z
" id="ArialMT-55"/>
     <path d="M 21.296875 -19.875 
L 1.90625 -19.875 
L 1.90625 -12.59375 
L 12.5 -12.59375 
L 12.5 64.3125 
L 1.90625 64.3125 
L 1.90625 71.578125 
L 21.296875 71.578125 
z
" id="ArialMT-93"/>
    </defs>
    <g style="fill:#262626;" transform="translate(49.622813 49.293)scale(0.12 -0.12)">
     <use xlink:href="#ArialMT-83"/>
     <use x="66.699219" xlink:href="#ArialMT-104"/>
     <use x="122.314453" xlink:href="#ArialMT-97"/>
     <use x="177.929688" xlink:href="#ArialMT-114"/>
     <use x="211.230469" xlink:href="#ArialMT-112"/>
     <use x="266.845703" xlink:href="#ArialMT-32"/>
     <use x="294.628906" xlink:href="#ArialMT-97"/>
     <use x="350.244141" xlink:href="#ArialMT-116"/>
     <use x="378.027344" xlink:href="#ArialMT-32"/>
     <use x="405.810547" xlink:href="#ArialMT-91"/>
     <use x="433.59375" xlink:href="#ArialMT-39"/>
     <use x="452.685547" xlink:href="#ArialMT-71"/>
     <use x="530.46875" xlink:href="#ArialMT-61"/>
     <use x="588.867188" xlink:href="#ArialMT-53"/>
     <use x="644.482422" xlink:href="#ArialMT-48"/>
     <use x="700.097656" xlink:href="#ArialMT-48"/>
     <use x="755.712891" xlink:href="#ArialMT-39"/>
     <use x="774.804688" xlink:href="#ArialMT-44"/>
     <use x="802.587891" xlink:href="#ArialMT-32"/>
     <use x="830.371094" xlink:href="#ArialMT-39"/>
     <use x="849.462891" xlink:href="#ArialMT-71"/>
     <use x="927.246094" xlink:href="#ArialMT-61"/>
     <use x="985.644531" xlink:href="#ArialMT-55"/>
     <use x="1041.259766" xlink:href="#ArialMT-53"/>
     <use x="1096.875" xlink:href="#ArialMT-48"/>
     <use x="1152.490234" xlink:href="#ArialMT-39"/>
     <use x="1171.582031" xlink:href="#ArialMT-44"/>
     <use x="1199.365234" xlink:href="#ArialMT-32"/>
     <use x="1227.148438" xlink:href="#ArialMT-39"/>
     <use x="1246.240234" xlink:href="#ArialMT-71"/>
     <use x="1324.023438" xlink:href="#ArialMT-61"/>
     <use x="1382.421875" xlink:href="#ArialMT-49"/>
     <use x="1438.037109" xlink:href="#ArialMT-48"/>
     <use x="1493.652344" xlink:href="#ArialMT-48"/>
     <use x="1549.267578" xlink:href="#ArialMT-48"/>
     <use x="1604.882812" xlink:href="#ArialMT-39"/>
     <use x="1623.974609" xlink:href="#ArialMT-93"/>
    </g>
   </g>
  </g>
  <g id="legend_1">
   <g id="patch_7">
    <path d="M 333.255625 93.603125 
L 430.022812 93.603125 
Q 432.022812 93.603125 432.022812 91.603125 
L 432.022812 7 
Q 432.022812 5 430.022812 5 
L 333.255625 5 
Q 331.255625 5 331.255625 7 
L 331.255625 91.603125 
Q 331.255625 93.603125 333.255625 93.603125 
z
" style="fill:#ffffff;opacity:0.8;stroke:#000000;stroke-linejoin:miter;stroke-width:0.3;"/>
   </g>
   <g id="line2d_31">
    <path d="M 335.255625 12.779688 
L 355.255625 12.779688 
" style="fill:none;stroke:#4c72b0;stroke-linecap:round;stroke-width:1.75;"/>
   </g>
   <g id="line2d_32"/>
   <g id="text_16">
    <!-- Initial_G=500 -->
    <defs>
     <path d="M -1.515625 -19.875 
L -1.515625 -13.53125 
L 56.734375 -13.53125 
L 56.734375 -19.875 
z
" id="ArialMT-95"/>
    </defs>
    <g style="fill:#262626;" transform="translate(363.255625 16.279688)scale(0.1 -0.1)">
     <use xlink:href="#ArialMT-73"/>
     <use x="27.783203" xlink:href="#ArialMT-110"/>
     <use x="83.398438" xlink:href="#ArialMT-105"/>
     <use x="105.615234" xlink:href="#ArialMT-116"/>
     <use x="133.398438" xlink:href="#ArialMT-105"/>
     <use x="155.615234" xlink:href="#ArialMT-97"/>
     <use x="211.230469" xlink:href="#ArialMT-108"/>
     <use x="233.447266" xlink:href="#ArialMT-95"/>
     <use x="289.0625" xlink:href="#ArialMT-71"/>
     <use x="366.845703" xlink:href="#ArialMT-61"/>
     <use x="425.244141" xlink:href="#ArialMT-53"/>
     <use x="480.859375" xlink:href="#ArialMT-48"/>
     <use x="536.474609" xlink:href="#ArialMT-48"/>
    </g>
   </g>
   <g id="line2d_33">
    <path d="M 335.255625 27.046875 
L 355.255625 27.046875 
" style="fill:none;stroke:#55a868;stroke-linecap:round;stroke-width:1.75;"/>
   </g>
   <g id="line2d_34"/>
   <g id="text_17">
    <!-- Last_G=500 -->
    <defs>
     <path d="M 7.328125 0 
L 7.328125 71.578125 
L 16.796875 71.578125 
L 16.796875 8.453125 
L 52.046875 8.453125 
L 52.046875 0 
z
" id="ArialMT-76"/>
    </defs>
    <g style="fill:#262626;" transform="translate(363.255625 30.546875)scale(0.1 -0.1)">
     <use xlink:href="#ArialMT-76"/>
     <use x="55.615234" xlink:href="#ArialMT-97"/>
     <use x="111.230469" xlink:href="#ArialMT-115"/>
     <use x="161.230469" xlink:href="#ArialMT-116"/>
     <use x="189.013672" xlink:href="#ArialMT-95"/>
     <use x="244.628906" xlink:href="#ArialMT-71"/>
     <use x="322.412109" xlink:href="#ArialMT-61"/>
     <use x="380.810547" xlink:href="#ArialMT-53"/>
     <use x="436.425781" xlink:href="#ArialMT-48"/>
     <use x="492.041016" xlink:href="#ArialMT-48"/>
    </g>
   </g>
   <g id="line2d_35">
    <path d="M 335.255625 41.314063 
L 355.255625 41.314063 
" style="fill:none;stroke:#c44e52;stroke-linecap:round;stroke-width:1.75;"/>
   </g>
   <g id="line2d_36"/>
   <g id="text_18">
    <!-- Initial_G=750 -->
    <g style="fill:#262626;" transform="translate(363.255625 44.814063)scale(0.1 -0.1)">
     <use xlink:href="#ArialMT-73"/>
     <use x="27.783203" xlink:href="#ArialMT-110"/>
     <use x="83.398438" xlink:href="#ArialMT-105"/>
     <use x="105.615234" xlink:href="#ArialMT-116"/>
     <use x="133.398438" xlink:href="#ArialMT-105"/>
     <use x="155.615234" xlink:href="#ArialMT-97"/>
     <use x="211.230469" xlink:href="#ArialMT-108"/>
     <use x="233.447266" xlink:href="#ArialMT-95"/>
     <use x="289.0625" xlink:href="#ArialMT-71"/>
     <use x="366.845703" xlink:href="#ArialMT-61"/>
     <use x="425.244141" xlink:href="#ArialMT-55"/>
     <use x="480.859375" xlink:href="#ArialMT-53"/>
     <use x="536.474609" xlink:href="#ArialMT-48"/>
    </g>
   </g>
   <g id="line2d_37">
    <path d="M 335.255625 55.58125 
L 355.255625 55.58125 
" style="fill:none;stroke:#8172b2;stroke-linecap:round;stroke-width:1.75;"/>
   </g>
   <g id="line2d_38"/>
   <g id="text_19">
    <!-- Last_G=750 -->
    <g style="fill:#262626;" transform="translate(363.255625 59.08125)scale(0.1 -0.1)">
     <use xlink:href="#ArialMT-76"/>
     <use x="55.615234" xlink:href="#ArialMT-97"/>
     <use x="111.230469" xlink:href="#ArialMT-115"/>
     <use x="161.230469" xlink:href="#ArialMT-116"/>
     <use x="189.013672" xlink:href="#ArialMT-95"/>
     <use x="244.628906" xlink:href="#ArialMT-71"/>
     <use x="322.412109" xlink:href="#ArialMT-61"/>
     <use x="380.810547" xlink:href="#ArialMT-55"/>
     <use x="436.425781" xlink:href="#ArialMT-53"/>
     <use x="492.041016" xlink:href="#ArialMT-48"/>
    </g>
   </g>
   <g id="line2d_39">
    <path d="M 335.255625 69.848438 
L 355.255625 69.848438 
" style="fill:none;stroke:#ccb974;stroke-linecap:round;stroke-width:1.75;"/>
   </g>
   <g id="line2d_40"/>
   <g id="text_20">
    <!-- Initial_G=1000 -->
    <g style="fill:#262626;" transform="translate(363.255625 73.348438)scale(0.1 -0.1)">
     <use xlink:href="#ArialMT-73"/>
     <use x="27.783203" xlink:href="#ArialMT-110"/>
     <use x="83.398438" xlink:href="#ArialMT-105"/>
     <use x="105.615234" xlink:href="#ArialMT-116"/>
     <use x="133.398438" xlink:href="#ArialMT-105"/>
     <use x="155.615234" xlink:href="#ArialMT-97"/>
     <use x="211.230469" xlink:href="#ArialMT-108"/>
     <use x="233.447266" xlink:href="#ArialMT-95"/>
     <use x="289.0625" xlink:href="#ArialMT-71"/>
     <use x="366.845703" xlink:href="#ArialMT-61"/>
     <use x="425.244141" xlink:href="#ArialMT-49"/>
     <use x="480.859375" xlink:href="#ArialMT-48"/>
     <use x="536.474609" xlink:href="#ArialMT-48"/>
     <use x="592.089844" xlink:href="#ArialMT-48"/>
    </g>
   </g>
   <g id="line2d_41">
    <path d="M 335.255625 84.115625 
L 355.255625 84.115625 
" style="fill:none;stroke:#64b5cd;stroke-linecap:round;stroke-width:1.75;"/>
   </g>
   <g id="line2d_42"/>
   <g id="text_21">
    <!-- Last_G=1000 -->
    <g style="fill:#262626;" transform="translate(363.255625 87.615625)scale(0.1 -0.1)">
     <use xlink:href="#ArialMT-76"/>
     <use x="55.615234" xlink:href="#ArialMT-97"/>
     <use x="111.230469" xlink:href="#ArialMT-115"/>
     <use x="161.230469" xlink:href="#ArialMT-116"/>
     <use x="189.013672" xlink:href="#ArialMT-95"/>
     <use x="244.628906" xlink:href="#ArialMT-71"/>
     <use x="322.412109" xlink:href="#ArialMT-61"/>
     <use x="380.810547" xlink:href="#ArialMT-49"/>
     <use x="436.425781" xlink:href="#ArialMT-48"/>
     <use x="492.041016" xlink:href="#ArialMT-48"/>
     <use x="547.65625" xlink:href="#ArialMT-48"/>
    </g>
   </g>
  </g>
 </g>
 <defs>
  <clipPath id="pa1781a40a9">
   <rect height="217.44" width="334.8" x="49.622813" y="55.152375"/>
  </clipPath>
 </defs>
</svg>
